<?xml version="1.0" encoding="utf-8"?>
<svg version="1.1" xmlns:xlink="http://www.w3.org/1999/xlink" width="100px" height="100px" xmlns="http://www.w3.org/2000/svg">
  <defs>
    <mask fill="white" id="clip1">
      <path d="M 0 50  C 0 22  22 0  50 0  C 66.6598218910467 0  81.1955391996338 7.78838346901887  90.2369420189293 19.9949405002247  C 96.3913366454831 28.3038246969617  100 38.6598218910467  100 50  C 100 78  78 100  50 100  C 22 100  0 78  0 50  Z " fill-rule="evenodd" />
    </mask>
  </defs>
  <g transform="matrix(1 0 0 1 -861 -471 )">
    <path d="M 0 50  C 0 22  22 0  50 0  C 66.6598218910467 0  81.1955391996338 7.78838346901887  90.2369420189293 19.9949405002247  C 96.3913366454831 28.3038246969617  100 38.6598218910467  100 50  C 100 78  78 100  50 100  C 22 100  0 78  0 50  Z " fill-rule="nonzero" fill="#facd91" stroke="none" fill-opacity="0.349019607843137" transform="matrix(1 0 0 1 861 471 )" />
    <path d="M 0 50  C 0 22  22 0  50 0  C 66.6598218910467 0  81.1955391996338 7.78838346901887  90.2369420189293 19.9949405002247  C 96.3913366454831 28.3038246969617  100 38.6598218910467  100 50  C 100 78  78 100  50 100  C 22 100  0 78  0 50  Z " stroke-width="2" stroke="#facd91" fill="none" stroke-opacity="0.105882352941176" transform="matrix(1 0 0 1 861 471 )" mask="url(#clip1)" />
  </g>
</svg>